<?xml version="1.0" encoding="UTF-8" standalone="no"?>
<!DOCTYPE svg PUBLIC "-//W3C//DTD SVG 1.1//EN"
 "http://www.w3.org/Graphics/SVG/1.1/DTD/svg11.dtd">
<!-- Generated by graphviz version 4.0.0 (0)
 -->
<!-- Title: curlio/error.hpp Pages: 1 -->
<svg width="423pt" height="252pt"
 viewBox="0.00 0.00 423.36 252.00" xmlns="http://www.w3.org/2000/svg" xmlns:xlink="http://www.w3.org/1999/xlink">
<g id="graph0" class="graph" transform="scale(1 1) rotate(0) translate(4 248)">
<title>curlio/error.hpp</title>
<!-- Node1 -->
<g id="node1" class="node">
<title>Node1</title>
<g id="a_node1"><a xlink:title="Error codes and conditions.">
<polygon fill="#bfbfbf" stroke="black" points="130.48,-224.5 130.48,-243.5 220.48,-243.5 220.48,-224.5 130.48,-224.5"/>
<text text-anchor="middle" x="175.48" y="-231.5" font-family="Helvetica,sans-Serif" font-size="10.00">curlio/error.hpp</text>
</a>
</g>
</g>
<!-- Node2 -->
<g id="node2" class="node">
<title>Node2</title>
<g id="a_node2"><a xlink:href="curlio_8hpp_source.html" target="_top" xlink:title=" ">
<polygon fill="none" stroke="black" points="225.98,-0.5 225.98,-19.5 320.98,-19.5 320.98,-0.5 225.98,-0.5"/>
<text text-anchor="middle" x="273.48" y="-7.5" font-family="Helvetica,sans-Serif" font-size="10.00">curlio/curlio.hpp</text>
</a>
</g>
</g>
<!-- Node1&#45;&gt;Node2 -->
<g id="edge1" class="edge">
<title>Node1&#45;&gt;Node2</title>
<path fill="none" stroke="midnightblue" d="M131.33,-221.65C70.34,-203.72 -28.28,-165.34 8.48,-112 57.5,-40.85 163.85,-19.78 225.89,-13.57"/>
<polygon fill="midnightblue" stroke="midnightblue" points="130.56,-225.07 141.14,-224.45 132.49,-218.34 130.56,-225.07"/>
</g>
<!-- Node3 -->
<g id="node3" class="node">
<title>Node3</title>
<g id="a_node3"><a xlink:href="json_8hpp.html" target="_top" xlink:title="Quicky parse the request body as JSON or write to the response.">
<polygon fill="none" stroke="black" points="163.98,-112.5 163.98,-131.5 280.98,-131.5 280.98,-112.5 163.98,-112.5"/>
<text text-anchor="middle" x="222.48" y="-119.5" font-family="Helvetica,sans-Serif" font-size="10.00">curlio/quick/json.hpp</text>
</a>
</g>
</g>
<!-- Node1&#45;&gt;Node3 -->
<g id="edge2" class="edge">
<title>Node1&#45;&gt;Node3</title>
<path fill="none" stroke="midnightblue" d="M161.79,-215.88C152.79,-202.39 144.09,-183.37 152.48,-168 162.1,-150.37 181.91,-138.62 198.01,-131.56"/>
<polygon fill="midnightblue" stroke="midnightblue" points="159.15,-218.19 167.87,-224.22 164.81,-214.07 159.15,-218.19"/>
</g>
<!-- Node5 -->
<g id="node5" class="node">
<title>Node5</title>
<g id="a_node5"><a xlink:href="reader_8hpp.html" target="_top" xlink:title="Convenience function to read all the response body to a std::string.">
<polygon fill="none" stroke="black" points="17.48,-112.5 17.48,-131.5 145.48,-131.5 145.48,-112.5 17.48,-112.5"/>
<text text-anchor="middle" x="81.48" y="-119.5" font-family="Helvetica,sans-Serif" font-size="10.00">curlio/quick/reader.hpp</text>
</a>
</g>
</g>
<!-- Node1&#45;&gt;Node5 -->
<g id="edge5" class="edge">
<title>Node1&#45;&gt;Node5</title>
<path fill="none" stroke="midnightblue" d="M161.45,-216.59C141.19,-192.87 104.44,-149.87 88.82,-131.59"/>
<polygon fill="midnightblue" stroke="midnightblue" points="158.94,-219.04 168.1,-224.37 164.27,-214.49 158.94,-219.04"/>
</g>
<!-- Node6 -->
<g id="node6" class="node">
<title>Node6</title>
<g id="a_node6"><a xlink:href="request_8hpp_source.html" target="_top" xlink:title=" ">
<polygon fill="none" stroke="black" points="291.48,-168.5 291.48,-187.5 395.48,-187.5 395.48,-168.5 291.48,-168.5"/>
<text text-anchor="middle" x="343.48" y="-175.5" font-family="Helvetica,sans-Serif" font-size="10.00">curlio/request.hpp</text>
</a>
</g>
</g>
<!-- Node1&#45;&gt;Node6 -->
<g id="edge7" class="edge">
<title>Node1&#45;&gt;Node6</title>
<path fill="none" stroke="midnightblue" d="M211.86,-221.3C243.52,-211.13 288.65,-196.62 316.98,-187.52"/>
<polygon fill="midnightblue" stroke="midnightblue" points="210.55,-218.05 202.1,-224.44 212.69,-224.72 210.55,-218.05"/>
</g>
<!-- Node7 -->
<g id="node7" class="node">
<title>Node7</title>
<g id="a_node7"><a xlink:href="session_8hpp_source.html" target="_top" xlink:title=" ">
<polygon fill="none" stroke="black" points="299.48,-112.5 299.48,-131.5 403.48,-131.5 403.48,-112.5 299.48,-112.5"/>
<text text-anchor="middle" x="351.48" y="-119.5" font-family="Helvetica,sans-Serif" font-size="10.00">curlio/session.hpp</text>
</a>
</g>
</g>
<!-- Node1&#45;&gt;Node7 -->
<g id="edge16" class="edge">
<title>Node1&#45;&gt;Node7</title>
<path fill="none" stroke="midnightblue" d="M230.87,-229.98C291.47,-225.39 382.91,-214.21 404.48,-188 421.04,-167.87 388.53,-144.11 367.47,-131.64"/>
<polygon fill="midnightblue" stroke="midnightblue" points="230.4,-226.51 220.68,-230.72 230.9,-233.49 230.4,-226.51"/>
</g>
<!-- Node8 -->
<g id="node8" class="node">
<title>Node8</title>
<g id="a_node8"><a xlink:href="response_8hpp_source.html" target="_top" xlink:title=" ">
<polygon fill="none" stroke="black" points="161.48,-168.5 161.48,-187.5 273.48,-187.5 273.48,-168.5 161.48,-168.5"/>
<text text-anchor="middle" x="217.48" y="-175.5" font-family="Helvetica,sans-Serif" font-size="10.00">curlio/response.hpp</text>
</a>
</g>
</g>
<!-- Node1&#45;&gt;Node8 -->
<g id="edge12" class="edge">
<title>Node1&#45;&gt;Node8</title>
<path fill="none" stroke="midnightblue" d="M188.59,-216.14C195.91,-206.74 204.72,-195.4 210.67,-187.75"/>
<polygon fill="midnightblue" stroke="midnightblue" points="185.79,-214.04 182.41,-224.08 191.31,-218.34 185.79,-214.04"/>
</g>
<!-- Node4 -->
<g id="node4" class="node">
<title>Node4</title>
<g id="a_node4"><a xlink:href="quick_8hpp_source.html" target="_top" xlink:title=" ">
<polygon fill="none" stroke="black" points="175.48,-56.5 175.48,-75.5 269.48,-75.5 269.48,-56.5 175.48,-56.5"/>
<text text-anchor="middle" x="222.48" y="-63.5" font-family="Helvetica,sans-Serif" font-size="10.00">curlio/quick.hpp</text>
</a>
</g>
</g>
<!-- Node3&#45;&gt;Node4 -->
<g id="edge3" class="edge">
<title>Node3&#45;&gt;Node4</title>
<path fill="none" stroke="midnightblue" d="M222.48,-101.8C222.48,-92.91 222.48,-82.78 222.48,-75.75"/>
<polygon fill="midnightblue" stroke="midnightblue" points="218.98,-102.08 222.48,-112.08 225.98,-102.08 218.98,-102.08"/>
</g>
<!-- Node4&#45;&gt;Node2 -->
<g id="edge4" class="edge">
<title>Node4&#45;&gt;Node2</title>
<path fill="none" stroke="midnightblue" d="M237.86,-48.72C246.84,-39.2 257.84,-27.56 265.21,-19.75"/>
<polygon fill="midnightblue" stroke="midnightblue" points="235.22,-46.41 230.9,-56.08 240.31,-51.22 235.22,-46.41"/>
</g>
<!-- Node5&#45;&gt;Node4 -->
<g id="edge6" class="edge">
<title>Node5&#45;&gt;Node4</title>
<path fill="none" stroke="midnightblue" d="M113.41,-108.77C139.89,-98.63 176.87,-84.47 200.24,-75.52"/>
<polygon fill="midnightblue" stroke="midnightblue" points="111.91,-105.6 103.82,-112.44 114.41,-112.14 111.91,-105.6"/>
</g>
<!-- Node6&#45;&gt;Node2 -->
<g id="edge8" class="edge">
<title>Node6&#45;&gt;Node2</title>
<path fill="none" stroke="midnightblue" d="M375.21,-163.97C398.27,-152.39 423.64,-133.91 412.48,-112 387.97,-63.89 328.63,-33.32 295.97,-19.54"/>
<polygon fill="midnightblue" stroke="midnightblue" points="373.46,-160.93 365.91,-168.36 376.44,-167.26 373.46,-160.93"/>
</g>
<!-- Node6&#45;&gt;Node3 -->
<g id="edge9" class="edge">
<title>Node6&#45;&gt;Node3</title>
<path fill="none" stroke="midnightblue" d="M315.17,-164.37C292.51,-154.26 261.35,-140.35 241.56,-131.52"/>
<polygon fill="midnightblue" stroke="midnightblue" points="313.75,-167.56 324.3,-168.44 316.6,-161.17 313.75,-167.56"/>
</g>
<!-- Node6&#45;&gt;Node7 -->
<g id="edge10" class="edge">
<title>Node6&#45;&gt;Node7</title>
<path fill="none" stroke="midnightblue" d="M346.28,-158.1C347.61,-149.14 349.13,-138.86 350.18,-131.75"/>
<polygon fill="midnightblue" stroke="midnightblue" points="342.8,-157.68 344.8,-168.08 349.73,-158.7 342.8,-157.68"/>
</g>
<!-- Node7&#45;&gt;Node2 -->
<g id="edge11" class="edge">
<title>Node7&#45;&gt;Node2</title>
<path fill="none" stroke="midnightblue" d="M339.39,-103.96C322.49,-80.12 292.42,-37.71 279.57,-19.59"/>
<polygon fill="midnightblue" stroke="midnightblue" points="336.72,-106.24 345.36,-112.37 342.43,-102.19 336.72,-106.24"/>
</g>
<!-- Node8&#45;&gt;Node3 -->
<g id="edge13" class="edge">
<title>Node8&#45;&gt;Node3</title>
<path fill="none" stroke="midnightblue" d="M219.23,-158.1C220.06,-149.14 221.01,-138.86 221.67,-131.75"/>
<polygon fill="midnightblue" stroke="midnightblue" points="215.74,-157.8 218.3,-168.08 222.71,-158.45 215.74,-157.8"/>
</g>
<!-- Node8&#45;&gt;Node5 -->
<g id="edge14" class="edge">
<title>Node8&#45;&gt;Node5</title>
<path fill="none" stroke="midnightblue" d="M186.34,-164.64C160.82,-154.5 125.37,-140.43 102.93,-131.52"/>
<polygon fill="midnightblue" stroke="midnightblue" points="185.34,-168.01 195.93,-168.44 187.93,-161.5 185.34,-168.01"/>
</g>
<!-- Node8&#45;&gt;Node7 -->
<g id="edge15" class="edge">
<title>Node8&#45;&gt;Node7</title>
<path fill="none" stroke="midnightblue" d="M248.15,-164.64C273.3,-154.5 308.23,-140.43 330.34,-131.52"/>
<polygon fill="midnightblue" stroke="midnightblue" points="246.68,-161.46 238.71,-168.44 249.29,-167.95 246.68,-161.46"/>
</g>
</g>
</svg>
