<?xml version="1.0" encoding="UTF-8" standalone="no"?>
<!DOCTYPE svg PUBLIC "-//W3C//DTD SVG 1.1//EN"
 "http://www.w3.org/Graphics/SVG/1.1/DTD/svg11.dtd">
<!-- Generated by graphviz version 4.0.0 (0)
 -->
<!-- Title: curlio/quick/form.hpp Pages: 1 -->
<svg width="563pt" height="95pt"
 viewBox="0.00 0.00 562.50 95.00" xmlns="http://www.w3.org/2000/svg" xmlns:xlink="http://www.w3.org/1999/xlink">
<g id="graph0" class="graph" transform="scale(1 1) rotate(0) translate(4 91)">
<title>curlio/quick/form.hpp</title>
<!-- Node1 -->
<g id="node1" class="node">
<title>Node1</title>
<g id="a_node1"><a xlink:title="Convenience function for form generation.">
<polygon fill="#bfbfbf" stroke="black" points="275,-67.5 275,-86.5 395,-86.5 395,-67.5 275,-67.5"/>
<text text-anchor="middle" x="335" y="-74.5" font-family="Helvetica,sans-Serif" font-size="10.00">curlio/quick/form.hpp</text>
</a>
</g>
</g>
<!-- Node2 -->
<g id="node2" class="node">
<title>Node2</title>
<g id="a_node2"><a xlink:title=" ">
<polygon fill="none" stroke="#bfbfbf" points="0,-6 0,-25 88,-25 88,-6 0,-6"/>
<text text-anchor="middle" x="44" y="-13" font-family="Helvetica,sans-Serif" font-size="10.00">boost/asio.hpp</text>
</a>
</g>
</g>
<!-- Node1&#45;&gt;Node2 -->
<g id="edge1" class="edge">
<title>Node1&#45;&gt;Node2</title>
<path fill="none" stroke="midnightblue" d="M283.22,-67.44C234.84,-59.16 160.71,-45.71 97,-31 92.59,-29.98 88,-28.84 83.44,-27.67"/>
<polygon fill="midnightblue" stroke="midnightblue" points="84.17,-24.24 73.61,-25.05 82.37,-31 84.17,-24.24"/>
</g>
<!-- Node3 -->
<g id="node3" class="node">
<title>Node3</title>
<g id="a_node3"><a xlink:title=" ">
<polygon fill="none" stroke="#bfbfbf" points="106.5,-0.5 106.5,-30.5 249.5,-30.5 249.5,-0.5 106.5,-0.5"/>
<text text-anchor="start" x="114.5" y="-18.5" font-family="Helvetica,sans-Serif" font-size="10.00">boost/numeric/conversion</text>
<text text-anchor="middle" x="178" y="-7.5" font-family="Helvetica,sans-Serif" font-size="10.00">/cast.hpp</text>
</a>
</g>
</g>
<!-- Node1&#45;&gt;Node3 -->
<g id="edge2" class="edge">
<title>Node1&#45;&gt;Node3</title>
<path fill="none" stroke="midnightblue" d="M312.51,-67.48C289.65,-58.81 253.59,-45.15 224.55,-34.14"/>
<polygon fill="midnightblue" stroke="midnightblue" points="225.59,-30.79 215,-30.52 223.11,-37.34 225.59,-30.79"/>
</g>
<!-- Node4 -->
<g id="node4" class="node">
<title>Node4</title>
<g id="a_node4"><a xlink:title=" ">
<polygon fill="none" stroke="#bfbfbf" points="267.5,-6 267.5,-25 332.5,-25 332.5,-6 267.5,-6"/>
<text text-anchor="middle" x="300" y="-13" font-family="Helvetica,sans-Serif" font-size="10.00">curl/curl.h</text>
</a>
</g>
</g>
<!-- Node1&#45;&gt;Node4 -->
<g id="edge3" class="edge">
<title>Node1&#45;&gt;Node4</title>
<path fill="none" stroke="midnightblue" d="M329.99,-67.48C324.84,-58.73 316.69,-44.87 310.18,-33.81"/>
<polygon fill="midnightblue" stroke="midnightblue" points="313.09,-31.85 305.01,-25.01 307.06,-35.4 313.09,-31.85"/>
</g>
<!-- Node5 -->
<g id="node5" class="node">
<title>Node5</title>
<g id="a_node5"><a xlink:title=" ">
<polygon fill="none" stroke="#bfbfbf" points="351,-6 351,-25 389,-25 389,-6 351,-6"/>
<text text-anchor="middle" x="370" y="-13" font-family="Helvetica,sans-Serif" font-size="10.00">map</text>
</a>
</g>
</g>
<!-- Node1&#45;&gt;Node5 -->
<g id="edge4" class="edge">
<title>Node1&#45;&gt;Node5</title>
<path fill="none" stroke="midnightblue" d="M340.01,-67.48C345.16,-58.73 353.31,-44.87 359.82,-33.81"/>
<polygon fill="midnightblue" stroke="midnightblue" points="362.94,-35.4 364.99,-25.01 356.91,-31.85 362.94,-35.4"/>
</g>
<!-- Node6 -->
<g id="node6" class="node">
<title>Node6</title>
<g id="a_node6"><a xlink:title=" ">
<polygon fill="none" stroke="#bfbfbf" points="407,-6 407,-25 463,-25 463,-6 407,-6"/>
<text text-anchor="middle" x="435" y="-13" font-family="Helvetica,sans-Serif" font-size="10.00">sstream</text>
</a>
</g>
</g>
<!-- Node1&#45;&gt;Node6 -->
<g id="edge5" class="edge">
<title>Node1&#45;&gt;Node6</title>
<path fill="none" stroke="midnightblue" d="M349.33,-67.48C365.66,-57.75 392.6,-41.73 411.91,-30.24"/>
<polygon fill="midnightblue" stroke="midnightblue" points="413.89,-33.13 420.7,-25.01 410.32,-27.11 413.89,-33.13"/>
</g>
<!-- Node7 -->
<g id="node7" class="node">
<title>Node7</title>
<g id="a_node7"><a xlink:title=" ">
<polygon fill="none" stroke="#bfbfbf" points="481.5,-6 481.5,-25 554.5,-25 554.5,-6 481.5,-6"/>
<text text-anchor="middle" x="518" y="-13" font-family="Helvetica,sans-Serif" font-size="10.00">string_view</text>
</a>
</g>
</g>
<!-- Node1&#45;&gt;Node7 -->
<g id="edge6" class="edge">
<title>Node1&#45;&gt;Node7</title>
<path fill="none" stroke="midnightblue" d="M361.22,-67.48C393.02,-57.14 446.77,-39.66 482.32,-28.1"/>
<polygon fill="midnightblue" stroke="midnightblue" points="483.4,-31.43 491.83,-25.01 481.24,-24.77 483.4,-31.43"/>
</g>
</g>
</svg>
