<?xml version="1.0" encoding="UTF-8" standalone="no"?>
<!DOCTYPE svg PUBLIC "-//W3C//DTD SVG 1.1//EN"
 "http://www.w3.org/Graphics/SVG/1.1/DTD/svg11.dtd">
<!-- Generated by graphviz version 3.0.0 (0)
 -->
<!-- Title: Graphical Class Hierarchy Pages: 1 -->
<svg width="286pt" height="100pt"
 viewBox="0.00 0.00 286.00 99.50" xmlns="http://www.w3.org/2000/svg" xmlns:xlink="http://www.w3.org/1999/xlink">
<g id="graph0" class="graph" transform="scale(1 1) rotate(0) translate(4 95.5)">
<title>Graphical Class Hierarchy</title>
<!-- Node0 -->
<g id="node1" class="node">
<title>Node0</title>
<g id="a_node1"><a xlink:title=" ">
<polygon fill="none" stroke="#bfbfbf" points="0,-38.5 0,-57.5 84,-57.5 84,-38.5 0,-38.5"/>
<text text-anchor="middle" x="42" y="-45.5" font-family="Helvetica,sans-Serif" font-size="10.00">std::true_type</text>
</a>
</g>
</g>
<!-- Node1 -->
<g id="node2" class="node">
<title>Node1</title>
<g id="a_node2"><a xlink:href="structboost_1_1system_1_1is__error__code__enum_3_01curlio_1_1_code_01_4.html" target="_top" xlink:title=" ">
<polygon fill="none" stroke="black" points="120,-61 120,-91 278,-91 278,-61 120,-61"/>
<text text-anchor="start" x="128" y="-79" font-family="Helvetica,sans-Serif" font-size="10.00">boost::system::is_error</text>
<text text-anchor="middle" x="199" y="-68" font-family="Helvetica,sans-Serif" font-size="10.00">_code_enum&lt; curlio::Code &gt;</text>
</a>
</g>
</g>
<!-- Node0&#45;&gt;Node1 -->
<g id="edge1" class="edge">
<title>Node0&#45;&gt;Node1</title>
<path fill="none" stroke="midnightblue" d="M93.99,-57.21C102.28,-58.71 111.03,-60.29 119.79,-61.87"/>
<polygon fill="midnightblue" stroke="midnightblue" points="94.59,-53.76 84.13,-55.43 93.35,-60.65 94.59,-53.76"/>
</g>
<!-- Node2 -->
<g id="node3" class="node">
<title>Node2</title>
<g id="a_node3"><a xlink:href="structboost_1_1system_1_1is__error__condition__enum_3_01curlio_1_1_condition_01_4.html" target="_top" xlink:title=" ">
<polygon fill="none" stroke="black" points="130,-0.5 130,-41.5 268,-41.5 268,-0.5 130,-0.5"/>
<text text-anchor="start" x="138" y="-29.5" font-family="Helvetica,sans-Serif" font-size="10.00">boost::system::is_error</text>
<text text-anchor="start" x="138" y="-18.5" font-family="Helvetica,sans-Serif" font-size="10.00">_condition_enum&lt; curlio</text>
<text text-anchor="middle" x="199" y="-7.5" font-family="Helvetica,sans-Serif" font-size="10.00">::Condition &gt;</text>
</a>
</g>
</g>
<!-- Node0&#45;&gt;Node2 -->
<g id="edge2" class="edge">
<title>Node0&#45;&gt;Node2</title>
<path fill="none" stroke="midnightblue" d="M93.99,-39.12C105.5,-37.11 117.9,-34.95 129.99,-32.85"/>
<polygon fill="midnightblue" stroke="midnightblue" points="93.38,-35.67 84.13,-40.84 94.58,-42.57 93.38,-35.67"/>
</g>
</g>
</svg>
