<?xml version="1.0" encoding="UTF-8" standalone="no"?>
<!DOCTYPE svg PUBLIC "-//W3C//DTD SVG 1.1//EN"
 "http://www.w3.org/Graphics/SVG/1.1/DTD/svg11.dtd">
<!-- Generated by graphviz version 4.0.0 (0)
 -->
<!-- Title: curlio/quick/json.hpp Pages: 1 -->
<svg width="1657pt" height="196pt"
 viewBox="0.00 0.00 1657.00 196.00" xmlns="http://www.w3.org/2000/svg" xmlns:xlink="http://www.w3.org/1999/xlink">
<g id="graph0" class="graph" transform="scale(1 1) rotate(0) translate(4 192)">
<title>curlio/quick/json.hpp</title>
<!-- Node1 -->
<g id="node1" class="node">
<title>Node1</title>
<g id="a_node1"><a xlink:title="Quicky parse the request body as JSON or write to the response.">
<polygon fill="#bfbfbf" stroke="black" points="772.5,-168.5 772.5,-187.5 889.5,-187.5 889.5,-168.5 772.5,-168.5"/>
<text text-anchor="middle" x="831" y="-175.5" font-family="Helvetica,sans-Serif" font-size="10.00">curlio/quick/json.hpp</text>
</a>
</g>
</g>
<!-- Node2 -->
<g id="node2" class="node">
<title>Node2</title>
<g id="a_node2"><a xlink:href="error_8hpp.html" target="_top" xlink:title="Error codes and conditions.">
<polygon fill="none" stroke="black" points="69.5,-56.5 69.5,-75.5 138.5,-75.5 138.5,-56.5 69.5,-56.5"/>
<text text-anchor="middle" x="104" y="-63.5" font-family="Helvetica,sans-Serif" font-size="10.00">../error.hpp</text>
</a>
</g>
</g>
<!-- Node1&#45;&gt;Node2 -->
<g id="edge1" class="edge">
<title>Node1&#45;&gt;Node2</title>
<path fill="none" stroke="midnightblue" d="M772.39,-171.08C698.47,-163.35 567.52,-148.81 456,-132 321.65,-111.74 286.25,-102.81 148.66,-76.1"/>
<polygon fill="midnightblue" stroke="midnightblue" points="149.06,-72.61 138.57,-74.15 147.72,-79.48 149.06,-72.61"/>
</g>
<!-- Node5 -->
<g id="node5" class="node">
<title>Node5</title>
<g id="a_node5"><a xlink:href="request_8hpp_source.html" target="_top" xlink:title=" ">
<polygon fill="none" stroke="black" points="789.5,-112.5 789.5,-131.5 872.5,-131.5 872.5,-112.5 789.5,-112.5"/>
<text text-anchor="middle" x="831" y="-119.5" font-family="Helvetica,sans-Serif" font-size="10.00">../request.hpp</text>
</a>
</g>
</g>
<!-- Node1&#45;&gt;Node5 -->
<g id="edge4" class="edge">
<title>Node1&#45;&gt;Node5</title>
<path fill="none" stroke="midnightblue" d="M831,-168.08C831,-161.01 831,-150.86 831,-141.99"/>
<polygon fill="midnightblue" stroke="midnightblue" points="834.5,-141.75 831,-131.75 827.5,-141.75 834.5,-141.75"/>
</g>
<!-- Node11 -->
<g id="node11" class="node">
<title>Node11</title>
<g id="a_node11"><a xlink:title=" ">
<polygon fill="none" stroke="#bfbfbf" points="157,-56.5 157,-75.5 245,-75.5 245,-56.5 157,-56.5"/>
<text text-anchor="middle" x="201" y="-63.5" font-family="Helvetica,sans-Serif" font-size="10.00">boost/asio.hpp</text>
</a>
</g>
</g>
<!-- Node1&#45;&gt;Node11 -->
<g id="edge37" class="edge">
<title>Node1&#45;&gt;Node11</title>
<path fill="none" stroke="midnightblue" d="M782.09,-168.46C666.35,-148.25 376.35,-97.62 255.35,-76.49"/>
<polygon fill="midnightblue" stroke="midnightblue" points="255.66,-72.99 245.21,-74.72 254.46,-79.89 255.66,-72.99"/>
</g>
<!-- Node17 -->
<g id="node17" class="node">
<title>Node17</title>
<g id="a_node17"><a xlink:title=" ">
<polygon fill="none" stroke="#bfbfbf" points="1591,-56.5 1591,-75.5 1649,-75.5 1649,-56.5 1591,-56.5"/>
<text text-anchor="middle" x="1620" y="-63.5" font-family="Helvetica,sans-Serif" font-size="10.00">memory</text>
</a>
</g>
</g>
<!-- Node1&#45;&gt;Node17 -->
<g id="edge39" class="edge">
<title>Node1&#45;&gt;Node17</title>
<path fill="none" stroke="midnightblue" d="M839.33,-168.24C854,-153.47 886.12,-124.08 920,-112 1055.79,-63.58 1420.08,-95.61 1580.38,-75.88"/>
<polygon fill="midnightblue" stroke="midnightblue" points="1581.2,-79.3 1590.64,-74.5 1580.26,-72.36 1581.2,-79.3"/>
</g>
<!-- Node21 -->
<g id="node21" class="node">
<title>Node21</title>
<g id="a_node21"><a xlink:href="response_8hpp_source.html" target="_top" xlink:title=" ">
<polygon fill="none" stroke="black" points="680.5,-112.5 680.5,-131.5 771.5,-131.5 771.5,-112.5 680.5,-112.5"/>
<text text-anchor="middle" x="726" y="-119.5" font-family="Helvetica,sans-Serif" font-size="10.00">../response.hpp</text>
</a>
</g>
</g>
<!-- Node1&#45;&gt;Node21 -->
<g id="edge21" class="edge">
<title>Node1&#45;&gt;Node21</title>
<path fill="none" stroke="midnightblue" d="M814.13,-168.32C797.29,-159.66 771.19,-146.24 751.76,-136.25"/>
<polygon fill="midnightblue" stroke="midnightblue" points="753.32,-133.12 742.83,-131.65 750.12,-139.34 753.32,-133.12"/>
</g>
<!-- Node23 -->
<g id="node23" class="node">
<title>Node23</title>
<g id="a_node23"><a xlink:title=" ">
<polygon fill="none" stroke="#bfbfbf" points="929,-112.5 929,-131.5 971,-131.5 971,-112.5 929,-112.5"/>
<text text-anchor="middle" x="950" y="-119.5" font-family="Helvetica,sans-Serif" font-size="10.00">array</text>
</a>
</g>
</g>
<!-- Node1&#45;&gt;Node23 -->
<g id="edge36" class="edge">
<title>Node1&#45;&gt;Node23</title>
<path fill="none" stroke="midnightblue" d="M849.86,-168.44C869.27,-159.64 899.73,-145.81 921.96,-135.72"/>
<polygon fill="midnightblue" stroke="midnightblue" points="923.57,-138.84 931.23,-131.52 920.68,-132.46 923.57,-138.84"/>
</g>
<!-- Node24 -->
<g id="node24" class="node">
<title>Node24</title>
<g id="a_node24"><a xlink:title=" ">
<polygon fill="none" stroke="#bfbfbf" points="989,-112.5 989,-131.5 1077,-131.5 1077,-112.5 989,-112.5"/>
<text text-anchor="middle" x="1033" y="-119.5" font-family="Helvetica,sans-Serif" font-size="10.00">boost/json.hpp</text>
</a>
</g>
</g>
<!-- Node1&#45;&gt;Node24 -->
<g id="edge38" class="edge">
<title>Node1&#45;&gt;Node24</title>
<path fill="none" stroke="midnightblue" d="M863.01,-168.44C897.73,-159.16 953.29,-144.31 991.38,-134.13"/>
<polygon fill="midnightblue" stroke="midnightblue" points="992.39,-137.48 1001.14,-131.52 990.58,-130.72 992.39,-137.48"/>
</g>
<!-- Node3 -->
<g id="node3" class="node">
<title>Node3</title>
<g id="a_node3"><a xlink:title=" ">
<polygon fill="none" stroke="#bfbfbf" points="0,-0.5 0,-19.5 104,-19.5 104,-0.5 0,-0.5"/>
<text text-anchor="middle" x="52" y="-7.5" font-family="Helvetica,sans-Serif" font-size="10.00">boost/system.hpp</text>
</a>
</g>
</g>
<!-- Node2&#45;&gt;Node3 -->
<g id="edge2" class="edge">
<title>Node2&#45;&gt;Node3</title>
<path fill="none" stroke="midnightblue" d="M95.41,-56.08C87.84,-48.22 76.62,-36.57 67.49,-27.08"/>
<polygon fill="midnightblue" stroke="midnightblue" points="69.88,-24.53 60.43,-19.75 64.84,-29.38 69.88,-24.53"/>
</g>
<!-- Node4 -->
<g id="node4" class="node">
<title>Node4</title>
<g id="a_node4"><a xlink:title=" ">
<polygon fill="none" stroke="#bfbfbf" points="122.5,-0.5 122.5,-19.5 191.5,-19.5 191.5,-0.5 122.5,-0.5"/>
<text text-anchor="middle" x="157" y="-7.5" font-family="Helvetica,sans-Serif" font-size="10.00">type_traits</text>
</a>
</g>
</g>
<!-- Node2&#45;&gt;Node4 -->
<g id="edge3" class="edge">
<title>Node2&#45;&gt;Node4</title>
<path fill="none" stroke="midnightblue" d="M112.75,-56.08C120.47,-48.22 131.9,-36.57 141.22,-27.08"/>
<polygon fill="midnightblue" stroke="midnightblue" points="143.9,-29.34 148.41,-19.75 138.91,-24.44 143.9,-29.34"/>
</g>
<!-- Node5&#45;&gt;Node2 -->
<g id="edge7" class="edge">
<title>Node5&#45;&gt;Node2</title>
<path fill="none" stroke="midnightblue" d="M789.31,-113.11C786.51,-112.7 783.72,-112.32 781,-112 504.43,-79.37 429.19,-111.56 148.58,-75.85"/>
<polygon fill="midnightblue" stroke="midnightblue" points="148.87,-72.36 138.51,-74.55 147.98,-79.3 148.87,-72.36"/>
</g>
<!-- Node6 -->
<g id="node6" class="node">
<title>Node6</title>
<g id="a_node6"><a xlink:title=" ">
<polygon fill="none" stroke="#bfbfbf" points="1099,-56.5 1099,-75.5 1207,-75.5 1207,-56.5 1099,-56.5"/>
<text text-anchor="middle" x="1153" y="-63.5" font-family="Helvetica,sans-Serif" font-size="10.00">detail/function.hpp</text>
</a>
</g>
</g>
<!-- Node5&#45;&gt;Node6 -->
<g id="edge5" class="edge">
<title>Node5&#45;&gt;Node6</title>
<path fill="none" stroke="midnightblue" d="M872.77,-114C928.65,-104.62 1028.15,-87.94 1092.31,-77.18"/>
<polygon fill="midnightblue" stroke="midnightblue" points="1093.01,-80.61 1102.3,-75.5 1091.85,-73.71 1093.01,-80.61"/>
</g>
<!-- Node7 -->
<g id="node7" class="node">
<title>Node7</title>
<g id="a_node7"><a xlink:title=" ">
<polygon fill="none" stroke="#bfbfbf" points="1225,-56.5 1225,-75.5 1353,-75.5 1353,-56.5 1225,-56.5"/>
<text text-anchor="middle" x="1289" y="-63.5" font-family="Helvetica,sans-Serif" font-size="10.00">detail/shared_data.hpp</text>
</a>
</g>
</g>
<!-- Node5&#45;&gt;Node7 -->
<g id="edge6" class="edge">
<title>Node5&#45;&gt;Node7</title>
<path fill="none" stroke="midnightblue" d="M872.56,-114.08C877.42,-113.34 882.32,-112.63 887,-112 1029.5,-92.77 1068.17,-92.98 1214.64,-76.14"/>
<polygon fill="midnightblue" stroke="midnightblue" points="1215.38,-79.58 1224.91,-74.95 1214.58,-72.62 1215.38,-79.58"/>
</g>
<!-- Node8 -->
<g id="node8" class="node">
<title>Node8</title>
<g id="a_node8"><a xlink:href="log_8hpp_source.html" target="_top" xlink:title=" ">
<polygon fill="none" stroke="black" points="429.5,-56.5 429.5,-75.5 482.5,-75.5 482.5,-56.5 429.5,-56.5"/>
<text text-anchor="middle" x="456" y="-63.5" font-family="Helvetica,sans-Serif" font-size="10.00">log.hpp</text>
</a>
</g>
</g>
<!-- Node5&#45;&gt;Node8 -->
<g id="edge8" class="edge">
<title>Node5&#45;&gt;Node8</title>
<path fill="none" stroke="midnightblue" d="M789.29,-113.32C786.48,-112.86 783.7,-112.41 781,-112 656.29,-93.02 621.02,-99.39 492.87,-75.94"/>
<polygon fill="midnightblue" stroke="midnightblue" points="493.13,-72.43 482.66,-74.05 491.85,-79.31 493.13,-72.43"/>
</g>
<!-- Node9 -->
<g id="node9" class="node">
<title>Node9</title>
<g id="a_node9"><a xlink:title=" ">
<polygon fill="none" stroke="#bfbfbf" points="501,-56.5 501,-75.5 565,-75.5 565,-56.5 501,-56.5"/>
<text text-anchor="middle" x="533" y="-63.5" font-family="Helvetica,sans-Serif" font-size="10.00">algorithm</text>
</a>
</g>
</g>
<!-- Node5&#45;&gt;Node9 -->
<g id="edge9" class="edge">
<title>Node5&#45;&gt;Node9</title>
<path fill="none" stroke="midnightblue" d="M789.26,-113.47C786.47,-112.97 783.69,-112.48 781,-112 692.19,-96.28 667.31,-94.15 575.23,-76.18"/>
<polygon fill="midnightblue" stroke="midnightblue" points="575.69,-72.7 565.2,-74.21 574.34,-79.57 575.69,-72.7"/>
</g>
<!-- Node10 -->
<g id="node10" class="node">
<title>Node10</title>
<g id="a_node10"><a xlink:title=" ">
<polygon fill="none" stroke="#bfbfbf" points="1427,-56.5 1427,-75.5 1573,-75.5 1573,-56.5 1427,-56.5"/>
<text text-anchor="middle" x="1500" y="-63.5" font-family="Helvetica,sans-Serif" font-size="10.00">boost/algorithm/string.hpp</text>
</a>
</g>
</g>
<!-- Node5&#45;&gt;Node10 -->
<g id="edge10" class="edge">
<title>Node5&#45;&gt;Node10</title>
<path fill="none" stroke="midnightblue" d="M872.53,-113.89C877.4,-113.19 882.3,-112.54 887,-112 1118.69,-85.58 1180.64,-96.58 1416.43,-76.1"/>
<polygon fill="midnightblue" stroke="midnightblue" points="1417.04,-79.56 1426.7,-75.2 1416.43,-72.59 1417.04,-79.56"/>
</g>
<!-- Node5&#45;&gt;Node11 -->
<g id="edge11" class="edge">
<title>Node5&#45;&gt;Node11</title>
<path fill="none" stroke="midnightblue" d="M789.31,-113.14C786.5,-112.72 783.71,-112.34 781,-112 550.87,-83.53 488.29,-103.51 255.35,-76.18"/>
<polygon fill="midnightblue" stroke="midnightblue" points="255.55,-72.68 245.21,-74.97 254.73,-79.63 255.55,-72.68"/>
</g>
<!-- Node12 -->
<g id="node12" class="node">
<title>Node12</title>
<g id="a_node12"><a xlink:title=" ">
<polygon fill="none" stroke="#bfbfbf" points="583.5,-56.5 583.5,-75.5 632.5,-75.5 632.5,-56.5 583.5,-56.5"/>
<text text-anchor="middle" x="608" y="-63.5" font-family="Helvetica,sans-Serif" font-size="10.00">cctype</text>
</a>
</g>
</g>
<!-- Node5&#45;&gt;Node12 -->
<g id="edge12" class="edge">
<title>Node5&#45;&gt;Node12</title>
<path fill="none" stroke="midnightblue" d="M793.99,-112.48C757.85,-104.09 701.05,-90.74 642.63,-76.11"/>
<polygon fill="midnightblue" stroke="midnightblue" points="643.42,-72.7 632.86,-73.66 641.71,-79.49 643.42,-72.7"/>
</g>
<!-- Node13 -->
<g id="node13" class="node">
<title>Node13</title>
<g id="a_node13"><a xlink:title=" ">
<polygon fill="none" stroke="#bfbfbf" points="651,-56.5 651,-75.5 697,-75.5 697,-56.5 651,-56.5"/>
<text text-anchor="middle" x="674" y="-63.5" font-family="Helvetica,sans-Serif" font-size="10.00">cstdio</text>
</a>
</g>
</g>
<!-- Node5&#45;&gt;Node13 -->
<g id="edge13" class="edge">
<title>Node5&#45;&gt;Node13</title>
<path fill="none" stroke="midnightblue" d="M806.12,-112.44C779.24,-103.2 736.3,-88.43 706.71,-78.25"/>
<polygon fill="midnightblue" stroke="midnightblue" points="707.82,-74.93 697.23,-74.99 705.54,-81.55 707.82,-74.93"/>
</g>
<!-- Node14 -->
<g id="node14" class="node">
<title>Node14</title>
<g id="a_node14"><a xlink:title=" ">
<polygon fill="none" stroke="#bfbfbf" points="715.5,-56.5 715.5,-75.5 780.5,-75.5 780.5,-56.5 715.5,-56.5"/>
<text text-anchor="middle" x="748" y="-63.5" font-family="Helvetica,sans-Serif" font-size="10.00">curl/curl.h</text>
</a>
</g>
</g>
<!-- Node5&#45;&gt;Node14 -->
<g id="edge14" class="edge">
<title>Node5&#45;&gt;Node14</title>
<path fill="none" stroke="midnightblue" d="M817.66,-112.32C804.84,-103.98 785.22,-91.21 770.06,-81.35"/>
<polygon fill="midnightblue" stroke="midnightblue" points="771.59,-78.17 761.3,-75.65 767.78,-84.04 771.59,-78.17"/>
</g>
<!-- Node15 -->
<g id="node15" class="node">
<title>Node15</title>
<g id="a_node15"><a xlink:title=" ">
<polygon fill="none" stroke="#bfbfbf" points="798.5,-56.5 798.5,-75.5 863.5,-75.5 863.5,-56.5 798.5,-56.5"/>
<text text-anchor="middle" x="831" y="-63.5" font-family="Helvetica,sans-Serif" font-size="10.00">functional</text>
</a>
</g>
</g>
<!-- Node5&#45;&gt;Node15 -->
<g id="edge15" class="edge">
<title>Node5&#45;&gt;Node15</title>
<path fill="none" stroke="midnightblue" d="M831,-112.08C831,-105.01 831,-94.86 831,-85.99"/>
<polygon fill="midnightblue" stroke="midnightblue" points="834.5,-85.75 831,-75.75 827.5,-85.75 834.5,-85.75"/>
</g>
<!-- Node16 -->
<g id="node16" class="node">
<title>Node16</title>
<g id="a_node16"><a xlink:title=" ">
<polygon fill="none" stroke="#bfbfbf" points="1371,-56.5 1371,-75.5 1409,-75.5 1409,-56.5 1371,-56.5"/>
<text text-anchor="middle" x="1390" y="-63.5" font-family="Helvetica,sans-Serif" font-size="10.00">map</text>
</a>
</g>
</g>
<!-- Node5&#45;&gt;Node16 -->
<g id="edge16" class="edge">
<title>Node5&#45;&gt;Node16</title>
<path fill="none" stroke="midnightblue" d="M872.54,-113.93C877.4,-113.22 882.31,-112.55 887,-112 1093.97,-87.57 1152.41,-115.77 1360.84,-75.76"/>
<polygon fill="midnightblue" stroke="midnightblue" points="1361.73,-79.15 1370.88,-73.8 1360.39,-72.28 1361.73,-79.15"/>
</g>
<!-- Node5&#45;&gt;Node17 -->
<g id="edge17" class="edge">
<title>Node5&#45;&gt;Node17</title>
<path fill="none" stroke="midnightblue" d="M872.52,-113.82C877.39,-113.13 882.3,-112.5 887,-112 1191.28,-79.76 1274.05,-118.96 1580.58,-75.94"/>
<polygon fill="midnightblue" stroke="midnightblue" points="1581.23,-79.38 1590.64,-74.51 1580.25,-72.45 1581.23,-79.38"/>
</g>
<!-- Node18 -->
<g id="node18" class="node">
<title>Node18</title>
<g id="a_node18"><a xlink:title=" ">
<polygon fill="none" stroke="#bfbfbf" points="882,-56.5 882,-75.5 926,-75.5 926,-56.5 882,-56.5"/>
<text text-anchor="middle" x="904" y="-63.5" font-family="Helvetica,sans-Serif" font-size="10.00">string</text>
</a>
</g>
</g>
<!-- Node5&#45;&gt;Node18 -->
<g id="edge18" class="edge">
<title>Node5&#45;&gt;Node18</title>
<path fill="none" stroke="midnightblue" d="M842.73,-112.32C853.84,-104.11 870.74,-91.6 883.98,-81.81"/>
<polygon fill="midnightblue" stroke="midnightblue" points="886.1,-84.59 892.06,-75.83 881.94,-78.97 886.1,-84.59"/>
</g>
<!-- Node19 -->
<g id="node19" class="node">
<title>Node19</title>
<g id="a_node19"><a xlink:title=" ">
<polygon fill="none" stroke="#bfbfbf" points="944.5,-56.5 944.5,-75.5 1017.5,-75.5 1017.5,-56.5 944.5,-56.5"/>
<text text-anchor="middle" x="981" y="-63.5" font-family="Helvetica,sans-Serif" font-size="10.00">string_view</text>
</a>
</g>
</g>
<!-- Node5&#45;&gt;Node19 -->
<g id="edge19" class="edge">
<title>Node5&#45;&gt;Node19</title>
<path fill="none" stroke="midnightblue" d="M854.77,-112.44C879.89,-103.4 919.71,-89.06 947.9,-78.92"/>
<polygon fill="midnightblue" stroke="midnightblue" points="949.12,-82.2 957.34,-75.52 946.75,-75.61 949.12,-82.2"/>
</g>
<!-- Node20 -->
<g id="node20" class="node">
<title>Node20</title>
<g id="a_node20"><a xlink:title=" ">
<polygon fill="none" stroke="#bfbfbf" points="1035.5,-56.5 1035.5,-75.5 1080.5,-75.5 1080.5,-56.5 1035.5,-56.5"/>
<text text-anchor="middle" x="1058" y="-63.5" font-family="Helvetica,sans-Serif" font-size="10.00">utility</text>
</a>
</g>
</g>
<!-- Node5&#45;&gt;Node20 -->
<g id="edge20" class="edge">
<title>Node5&#45;&gt;Node20</title>
<path fill="none" stroke="midnightblue" d="M871.33,-112.44C908.97,-104.3 966.92,-91.37 1025.56,-76.28"/>
<polygon fill="midnightblue" stroke="midnightblue" points="1026.55,-79.63 1035.35,-73.74 1024.8,-72.86 1026.55,-79.63"/>
</g>
<!-- Node21&#45;&gt;Node2 -->
<g id="edge25" class="edge">
<title>Node21&#45;&gt;Node2</title>
<path fill="none" stroke="midnightblue" d="M680.46,-119.38C584.16,-115.53 352.71,-104.1 148.53,-75.88"/>
<polygon fill="midnightblue" stroke="midnightblue" points="148.91,-72.4 138.52,-74.48 147.94,-79.33 148.91,-72.4"/>
</g>
<!-- Node21&#45;&gt;Node6 -->
<g id="edge22" class="edge">
<title>Node21&#45;&gt;Node6</title>
<path fill="none" stroke="midnightblue" d="M771.59,-113.37C774.77,-112.89 777.93,-112.43 781,-112 914.72,-93.28 951.19,-93.74 1088.64,-76.14"/>
<polygon fill="midnightblue" stroke="midnightblue" points="1089.25,-79.6 1098.72,-74.85 1088.35,-72.65 1089.25,-79.6"/>
</g>
<!-- Node21&#45;&gt;Node7 -->
<g id="edge24" class="edge">
<title>Node21&#45;&gt;Node7</title>
<path fill="none" stroke="midnightblue" d="M771.58,-113.25C774.76,-112.8 777.93,-112.38 781,-112 970.25,-88.72 1021.29,-95.62 1214.7,-76.09"/>
<polygon fill="midnightblue" stroke="midnightblue" points="1215.33,-79.54 1224.92,-75.05 1214.62,-72.58 1215.33,-79.54"/>
</g>
<!-- Node21&#45;&gt;Node8 -->
<g id="edge26" class="edge">
<title>Node21&#45;&gt;Node8</title>
<path fill="none" stroke="midnightblue" d="M680.11,-112.95C634.95,-104.85 563.79,-91.63 492.72,-76.06"/>
<polygon fill="midnightblue" stroke="midnightblue" points="493.22,-72.58 482.7,-73.85 491.71,-79.42 493.22,-72.58"/>
</g>
<!-- Node21&#45;&gt;Node9 -->
<g id="edge27" class="edge">
<title>Node21&#45;&gt;Node9</title>
<path fill="none" stroke="midnightblue" d="M695.42,-112.44C662.39,-103.2 609.61,-88.44 573.23,-78.26"/>
<polygon fill="midnightblue" stroke="midnightblue" points="574.01,-74.84 563.44,-75.52 572.13,-81.58 574.01,-74.84"/>
</g>
<!-- Node21&#45;&gt;Node11 -->
<g id="edge28" class="edge">
<title>Node21&#45;&gt;Node11</title>
<path fill="none" stroke="midnightblue" d="M680.21,-117.81C597.33,-111.79 416.76,-97.51 255.33,-76.24"/>
<polygon fill="midnightblue" stroke="midnightblue" points="255.59,-72.74 245.22,-74.89 254.67,-79.68 255.59,-72.74"/>
</g>
<!-- Node21&#45;&gt;Node12 -->
<g id="edge29" class="edge">
<title>Node21&#45;&gt;Node12</title>
<path fill="none" stroke="midnightblue" d="M707.3,-112.44C688.06,-103.64 657.85,-89.81 635.8,-79.72"/>
<polygon fill="midnightblue" stroke="midnightblue" points="637.16,-76.5 626.61,-75.52 634.25,-82.86 637.16,-76.5"/>
</g>
<!-- Node21&#45;&gt;Node13 -->
<g id="edge30" class="edge">
<title>Node21&#45;&gt;Node13</title>
<path fill="none" stroke="midnightblue" d="M717.41,-112.08C709.84,-104.22 698.62,-92.57 689.49,-83.08"/>
<polygon fill="midnightblue" stroke="midnightblue" points="691.88,-80.53 682.43,-75.75 686.84,-85.38 691.88,-80.53"/>
</g>
<!-- Node21&#45;&gt;Node14 -->
<g id="edge31" class="edge">
<title>Node21&#45;&gt;Node14</title>
<path fill="none" stroke="midnightblue" d="M729.63,-112.08C732.61,-104.77 736.93,-94.18 740.62,-85.1"/>
<polygon fill="midnightblue" stroke="midnightblue" points="743.9,-86.33 744.43,-75.75 737.42,-83.69 743.9,-86.33"/>
</g>
<!-- Node21&#45;&gt;Node15 -->
<g id="edge32" class="edge">
<title>Node21&#45;&gt;Node15</title>
<path fill="none" stroke="midnightblue" d="M742.87,-112.32C759.71,-103.66 785.81,-90.24 805.24,-80.25"/>
<polygon fill="midnightblue" stroke="midnightblue" points="806.88,-83.34 814.17,-75.65 803.68,-77.12 806.88,-83.34"/>
</g>
<!-- Node21&#45;&gt;Node18 -->
<g id="edge33" class="edge">
<title>Node21&#45;&gt;Node18</title>
<path fill="none" stroke="midnightblue" d="M754.2,-112.44C786.28,-102.71 838.52,-86.86 872.07,-76.69"/>
<polygon fill="midnightblue" stroke="midnightblue" points="873.28,-79.98 881.83,-73.73 871.25,-73.28 873.28,-79.98"/>
</g>
<!-- Node21&#45;&gt;Node19 -->
<g id="edge34" class="edge">
<title>Node21&#45;&gt;Node19</title>
<path fill="none" stroke="midnightblue" d="M766.41,-112.44C812.03,-102.78 886.16,-87.08 934.25,-76.9"/>
<polygon fill="midnightblue" stroke="midnightblue" points="935.04,-80.31 944.1,-74.82 933.59,-73.46 935.04,-80.31"/>
</g>
<!-- Node21&#45;&gt;Node20 -->
<g id="edge35" class="edge">
<title>Node21&#45;&gt;Node20</title>
<path fill="none" stroke="midnightblue" d="M771.61,-113.48C774.79,-112.97 777.94,-112.47 781,-112 887,-95.57 917.26,-99.22 1025.4,-76.11"/>
<polygon fill="midnightblue" stroke="midnightblue" points="1026.37,-79.49 1035.4,-73.95 1024.89,-72.64 1026.37,-79.49"/>
</g>
<!-- Node22 -->
<g id="node22" class="node">
<title>Node22</title>
<g id="a_node22"><a xlink:title=" ">
<polygon fill="none" stroke="#bfbfbf" points="262.5,-56.5 262.5,-75.5 411.5,-75.5 411.5,-56.5 262.5,-56.5"/>
<text text-anchor="middle" x="337" y="-63.5" font-family="Helvetica,sans-Serif" font-size="10.00">detail/header_collector.hpp</text>
</a>
</g>
</g>
<!-- Node21&#45;&gt;Node22 -->
<g id="edge23" class="edge">
<title>Node21&#45;&gt;Node22</title>
<path fill="none" stroke="midnightblue" d="M680.23,-114.65C613.25,-105.35 487.88,-87.95 408.62,-76.94"/>
<polygon fill="midnightblue" stroke="midnightblue" points="408.62,-73.41 398.24,-75.5 407.66,-80.34 408.62,-73.41"/>
</g>
</g>
</svg>
