<?xml version="1.0" encoding="UTF-8" standalone="no"?>
<!DOCTYPE svg PUBLIC "-//W3C//DTD SVG 1.1//EN"
 "http://www.w3.org/Graphics/SVG/1.1/DTD/svg11.dtd">
<!-- Generated by graphviz version 3.0.0 (0)
 -->
<!-- Title: curlio/quick/reader.hpp Pages: 1 -->
<svg width="1363pt" height="196pt"
 viewBox="0.00 0.00 1363.00 196.00" xmlns="http://www.w3.org/2000/svg" xmlns:xlink="http://www.w3.org/1999/xlink">
<g id="graph0" class="graph" transform="scale(1 1) rotate(0) translate(4 192)">
<title>curlio/quick/reader.hpp</title>
<!-- Node1 -->
<g id="node1" class="node">
<title>Node1</title>
<g id="a_node1"><a xlink:title="Convenience function to read all the response body to a std::string.">
<polygon fill="#bfbfbf" stroke="black" points="568,-168.5 568,-187.5 696,-187.5 696,-168.5 568,-168.5"/>
<text text-anchor="middle" x="632" y="-175.5" font-family="Helvetica,sans-Serif" font-size="10.00">curlio/quick/reader.hpp</text>
</a>
</g>
</g>
<!-- Node2 -->
<g id="node2" class="node">
<title>Node2</title>
<g id="a_node2"><a xlink:href="error_8hpp.html" target="_top" xlink:title="Error codes and conditions.">
<polygon fill="none" stroke="black" points="69.5,-56.5 69.5,-75.5 138.5,-75.5 138.5,-56.5 69.5,-56.5"/>
<text text-anchor="middle" x="104" y="-63.5" font-family="Helvetica,sans-Serif" font-size="10.00">../error.hpp</text>
</a>
</g>
</g>
<!-- Node1&#45;&gt;Node2 -->
<g id="edge1" class="edge">
<title>Node1&#45;&gt;Node2</title>
<path fill="none" stroke="midnightblue" d="M577.2,-168.48C524.84,-160.09 443.79,-146.47 374,-132 293.06,-115.22 199.43,-91.76 146.41,-78.09"/>
<polygon fill="midnightblue" stroke="midnightblue" points="147.24,-74.69 136.68,-75.58 145.49,-81.47 147.24,-74.69"/>
</g>
<!-- Node5 -->
<g id="node5" class="node">
<title>Node5</title>
<g id="a_node5"><a xlink:href="response_8hpp_source.html" target="_top" xlink:title=" ">
<polygon fill="none" stroke="black" points="730.5,-112.5 730.5,-131.5 821.5,-131.5 821.5,-112.5 730.5,-112.5"/>
<text text-anchor="middle" x="776" y="-119.5" font-family="Helvetica,sans-Serif" font-size="10.00">../response.hpp</text>
</a>
</g>
</g>
<!-- Node1&#45;&gt;Node5 -->
<g id="edge4" class="edge">
<title>Node1&#45;&gt;Node5</title>
<path fill="none" stroke="midnightblue" d="M654.82,-168.44C678.83,-159.44 716.83,-145.19 743.87,-135.05"/>
<polygon fill="midnightblue" stroke="midnightblue" points="745.16,-138.3 753.29,-131.52 742.7,-131.75 745.16,-138.3"/>
</g>
<!-- Node11 -->
<g id="node11" class="node">
<title>Node11</title>
<g id="a_node11"><a xlink:title=" ">
<polygon fill="none" stroke="#bfbfbf" points="157,-56.5 157,-75.5 245,-75.5 245,-56.5 157,-56.5"/>
<text text-anchor="middle" x="201" y="-63.5" font-family="Helvetica,sans-Serif" font-size="10.00">boost/asio.hpp</text>
</a>
</g>
</g>
<!-- Node1&#45;&gt;Node11 -->
<g id="edge19" class="edge">
<title>Node1&#45;&gt;Node11</title>
<path fill="none" stroke="midnightblue" d="M598.54,-168.46C521.2,-148.72 330.13,-99.96 244.15,-78.01"/>
<polygon fill="midnightblue" stroke="midnightblue" points="244.99,-74.62 234.44,-75.53 243.26,-81.4 244.99,-74.62"/>
</g>
<!-- Node16 -->
<g id="node16" class="node">
<title>Node16</title>
<g id="a_node16"><a xlink:title=" ">
<polygon fill="none" stroke="#bfbfbf" points="1311,-56.5 1311,-75.5 1355,-75.5 1355,-56.5 1311,-56.5"/>
<text text-anchor="middle" x="1333" y="-63.5" font-family="Helvetica,sans-Serif" font-size="10.00">string</text>
</a>
</g>
</g>
<!-- Node1&#45;&gt;Node16 -->
<g id="edge20" class="edge">
<title>Node1&#45;&gt;Node16</title>
<path fill="none" stroke="midnightblue" d="M696.26,-170.19C814.45,-157.05 1074.22,-125.25 1300.66,-76.05"/>
<polygon fill="midnightblue" stroke="midnightblue" points="1301.72,-79.4 1310.74,-73.85 1300.22,-72.57 1301.72,-79.4"/>
</g>
<!-- Node3 -->
<g id="node3" class="node">
<title>Node3</title>
<g id="a_node3"><a xlink:title=" ">
<polygon fill="none" stroke="#bfbfbf" points="0,-0.5 0,-19.5 104,-19.5 104,-0.5 0,-0.5"/>
<text text-anchor="middle" x="52" y="-7.5" font-family="Helvetica,sans-Serif" font-size="10.00">boost/system.hpp</text>
</a>
</g>
</g>
<!-- Node2&#45;&gt;Node3 -->
<g id="edge2" class="edge">
<title>Node2&#45;&gt;Node3</title>
<path fill="none" stroke="midnightblue" d="M95.41,-56.08C87.84,-48.22 76.62,-36.57 67.49,-27.08"/>
<polygon fill="midnightblue" stroke="midnightblue" points="69.88,-24.53 60.43,-19.75 64.84,-29.38 69.88,-24.53"/>
</g>
<!-- Node4 -->
<g id="node4" class="node">
<title>Node4</title>
<g id="a_node4"><a xlink:title=" ">
<polygon fill="none" stroke="#bfbfbf" points="122.5,-0.5 122.5,-19.5 191.5,-19.5 191.5,-0.5 122.5,-0.5"/>
<text text-anchor="middle" x="157" y="-7.5" font-family="Helvetica,sans-Serif" font-size="10.00">type_traits</text>
</a>
</g>
</g>
<!-- Node2&#45;&gt;Node4 -->
<g id="edge3" class="edge">
<title>Node2&#45;&gt;Node4</title>
<path fill="none" stroke="midnightblue" d="M112.75,-56.08C120.47,-48.22 131.9,-36.57 141.22,-27.08"/>
<polygon fill="midnightblue" stroke="midnightblue" points="143.9,-29.34 148.41,-19.75 138.91,-24.44 143.9,-29.34"/>
</g>
<!-- Node5&#45;&gt;Node2 -->
<g id="edge8" class="edge">
<title>Node5&#45;&gt;Node2</title>
<path fill="none" stroke="midnightblue" d="M730.47,-119.77C628.23,-116.57 372.49,-106.13 148.48,-75.87"/>
<polygon fill="midnightblue" stroke="midnightblue" points="148.9,-72.39 138.51,-74.5 147.95,-79.32 148.9,-72.39"/>
</g>
<!-- Node6 -->
<g id="node6" class="node">
<title>Node6</title>
<g id="a_node6"><a xlink:title=" ">
<polygon fill="none" stroke="#bfbfbf" points="418,-56.5 418,-75.5 526,-75.5 526,-56.5 418,-56.5"/>
<text text-anchor="middle" x="472" y="-63.5" font-family="Helvetica,sans-Serif" font-size="10.00">detail/function.hpp</text>
</a>
</g>
</g>
<!-- Node5&#45;&gt;Node6 -->
<g id="edge5" class="edge">
<title>Node5&#45;&gt;Node6</title>
<path fill="none" stroke="midnightblue" d="M730.49,-112.92C677.13,-103.44 588.58,-87.71 530.25,-77.35"/>
<polygon fill="midnightblue" stroke="midnightblue" points="530.54,-73.84 520.09,-75.54 529.32,-80.74 530.54,-73.84"/>
</g>
<!-- Node7 -->
<g id="node7" class="node">
<title>Node7</title>
<g id="a_node7"><a xlink:title=" ">
<polygon fill="none" stroke="#bfbfbf" points="544.5,-56.5 544.5,-75.5 693.5,-75.5 693.5,-56.5 544.5,-56.5"/>
<text text-anchor="middle" x="619" y="-63.5" font-family="Helvetica,sans-Serif" font-size="10.00">detail/header_collector.hpp</text>
</a>
</g>
</g>
<!-- Node5&#45;&gt;Node7 -->
<g id="edge6" class="edge">
<title>Node5&#45;&gt;Node7</title>
<path fill="none" stroke="midnightblue" d="M751.12,-112.44C724.71,-103.36 682.78,-88.94 653.26,-78.78"/>
<polygon fill="midnightblue" stroke="midnightblue" points="654.36,-75.46 643.76,-75.52 652.08,-82.08 654.36,-75.46"/>
</g>
<!-- Node8 -->
<g id="node8" class="node">
<title>Node8</title>
<g id="a_node8"><a xlink:title=" ">
<polygon fill="none" stroke="#bfbfbf" points="712,-56.5 712,-75.5 840,-75.5 840,-56.5 712,-56.5"/>
<text text-anchor="middle" x="776" y="-63.5" font-family="Helvetica,sans-Serif" font-size="10.00">detail/shared_data.hpp</text>
</a>
</g>
</g>
<!-- Node5&#45;&gt;Node8 -->
<g id="edge7" class="edge">
<title>Node5&#45;&gt;Node8</title>
<path fill="none" stroke="midnightblue" d="M776,-112.08C776,-105.01 776,-94.86 776,-85.99"/>
<polygon fill="midnightblue" stroke="midnightblue" points="779.5,-85.75 776,-75.75 772.5,-85.75 779.5,-85.75"/>
</g>
<!-- Node9 -->
<g id="node9" class="node">
<title>Node9</title>
<g id="a_node9"><a xlink:href="log_8hpp_source.html" target="_top" xlink:title=" ">
<polygon fill="none" stroke="black" points="858.5,-56.5 858.5,-75.5 911.5,-75.5 911.5,-56.5 858.5,-56.5"/>
<text text-anchor="middle" x="885" y="-63.5" font-family="Helvetica,sans-Serif" font-size="10.00">log.hpp</text>
</a>
</g>
</g>
<!-- Node5&#45;&gt;Node9 -->
<g id="edge9" class="edge">
<title>Node5&#45;&gt;Node9</title>
<path fill="none" stroke="midnightblue" d="M793.51,-112.32C811.07,-103.62 838.33,-90.12 858.53,-80.11"/>
<polygon fill="midnightblue" stroke="midnightblue" points="860.12,-83.23 867.53,-75.65 857.02,-76.96 860.12,-83.23"/>
</g>
<!-- Node10 -->
<g id="node10" class="node">
<title>Node10</title>
<g id="a_node10"><a xlink:title=" ">
<polygon fill="none" stroke="#bfbfbf" points="930,-56.5 930,-75.5 994,-75.5 994,-56.5 930,-56.5"/>
<text text-anchor="middle" x="962" y="-63.5" font-family="Helvetica,sans-Serif" font-size="10.00">algorithm</text>
</a>
</g>
</g>
<!-- Node5&#45;&gt;Node10 -->
<g id="edge10" class="edge">
<title>Node5&#45;&gt;Node10</title>
<path fill="none" stroke="midnightblue" d="M805.47,-112.44C837.17,-103.24 887.73,-88.56 922.77,-78.39"/>
<polygon fill="midnightblue" stroke="midnightblue" points="924.04,-81.67 932.67,-75.52 922.09,-74.94 924.04,-81.67"/>
</g>
<!-- Node5&#45;&gt;Node11 -->
<g id="edge11" class="edge">
<title>Node5&#45;&gt;Node11</title>
<path fill="none" stroke="midnightblue" d="M730.48,-118.34C641.28,-112.85 437.05,-98.94 255.22,-76.06"/>
<polygon fill="midnightblue" stroke="midnightblue" points="255.57,-72.57 245.21,-74.79 254.68,-79.52 255.57,-72.57"/>
</g>
<!-- Node12 -->
<g id="node12" class="node">
<title>Node12</title>
<g id="a_node12"><a xlink:title=" ">
<polygon fill="none" stroke="#bfbfbf" points="1012.5,-56.5 1012.5,-75.5 1061.5,-75.5 1061.5,-56.5 1012.5,-56.5"/>
<text text-anchor="middle" x="1037" y="-63.5" font-family="Helvetica,sans-Serif" font-size="10.00">cctype</text>
</a>
</g>
</g>
<!-- Node5&#45;&gt;Node12 -->
<g id="edge12" class="edge">
<title>Node5&#45;&gt;Node12</title>
<path fill="none" stroke="midnightblue" d="M821.83,-112.79C865.66,-104.75 933.8,-91.73 1002.09,-76.09"/>
<polygon fill="midnightblue" stroke="midnightblue" points="1003.21,-79.43 1012.16,-73.77 1001.63,-72.61 1003.21,-79.43"/>
</g>
<!-- Node13 -->
<g id="node13" class="node">
<title>Node13</title>
<g id="a_node13"><a xlink:title=" ">
<polygon fill="none" stroke="#bfbfbf" points="1080,-56.5 1080,-75.5 1126,-75.5 1126,-56.5 1080,-56.5"/>
<text text-anchor="middle" x="1103" y="-63.5" font-family="Helvetica,sans-Serif" font-size="10.00">cstdio</text>
</a>
</g>
</g>
<!-- Node5&#45;&gt;Node13 -->
<g id="edge13" class="edge">
<title>Node5&#45;&gt;Node13</title>
<path fill="none" stroke="midnightblue" d="M821.55,-115.81C877.78,-109.02 976.48,-95.84 1069.78,-76.05"/>
<polygon fill="midnightblue" stroke="midnightblue" points="1070.62,-79.45 1079.66,-73.92 1069.15,-72.6 1070.62,-79.45"/>
</g>
<!-- Node14 -->
<g id="node14" class="node">
<title>Node14</title>
<g id="a_node14"><a xlink:title=" ">
<polygon fill="none" stroke="#bfbfbf" points="1144.5,-56.5 1144.5,-75.5 1209.5,-75.5 1209.5,-56.5 1144.5,-56.5"/>
<text text-anchor="middle" x="1177" y="-63.5" font-family="Helvetica,sans-Serif" font-size="10.00">curl/curl.h</text>
</a>
</g>
</g>
<!-- Node5&#45;&gt;Node14 -->
<g id="edge14" class="edge">
<title>Node5&#45;&gt;Node14</title>
<path fill="none" stroke="midnightblue" d="M821.52,-116.57C887.99,-109.82 1015.68,-95.79 1134.5,-75.94"/>
<polygon fill="midnightblue" stroke="midnightblue" points="1135.22,-79.37 1144.49,-74.26 1134.05,-72.47 1135.22,-79.37"/>
</g>
<!-- Node15 -->
<g id="node15" class="node">
<title>Node15</title>
<g id="a_node15"><a xlink:title=" ">
<polygon fill="none" stroke="#bfbfbf" points="1227.5,-56.5 1227.5,-75.5 1292.5,-75.5 1292.5,-56.5 1227.5,-56.5"/>
<text text-anchor="middle" x="1260" y="-63.5" font-family="Helvetica,sans-Serif" font-size="10.00">functional</text>
</a>
</g>
</g>
<!-- Node5&#45;&gt;Node15 -->
<g id="edge15" class="edge">
<title>Node5&#45;&gt;Node15</title>
<path fill="none" stroke="midnightblue" d="M821.5,-118.11C900.21,-112.73 1067.02,-99.69 1217.07,-76.15"/>
<polygon fill="midnightblue" stroke="midnightblue" points="1218.06,-79.54 1227.39,-74.51 1216.97,-72.62 1218.06,-79.54"/>
</g>
<!-- Node5&#45;&gt;Node16 -->
<g id="edge16" class="edge">
<title>Node5&#45;&gt;Node16</title>
<path fill="none" stroke="midnightblue" d="M821.79,-120.11C911.96,-117.71 1118.86,-108.97 1300.76,-75.87"/>
<polygon fill="midnightblue" stroke="midnightblue" points="1301.58,-79.28 1310.78,-74.02 1300.31,-72.4 1301.58,-79.28"/>
</g>
<!-- Node17 -->
<g id="node17" class="node">
<title>Node17</title>
<g id="a_node17"><a xlink:title=" ">
<polygon fill="none" stroke="#bfbfbf" points="263.5,-56.5 263.5,-75.5 336.5,-75.5 336.5,-56.5 263.5,-56.5"/>
<text text-anchor="middle" x="300" y="-63.5" font-family="Helvetica,sans-Serif" font-size="10.00">string_view</text>
</a>
</g>
</g>
<!-- Node5&#45;&gt;Node17 -->
<g id="edge17" class="edge">
<title>Node5&#45;&gt;Node17</title>
<path fill="none" stroke="midnightblue" d="M730.21,-117.63C653.06,-111.65 492.09,-97.85 346.78,-76.16"/>
<polygon fill="midnightblue" stroke="midnightblue" points="347.2,-72.68 336.79,-74.65 346.15,-79.6 347.2,-72.68"/>
</g>
<!-- Node18 -->
<g id="node18" class="node">
<title>Node18</title>
<g id="a_node18"><a xlink:title=" ">
<polygon fill="none" stroke="#bfbfbf" points="354.5,-56.5 354.5,-75.5 399.5,-75.5 399.5,-56.5 354.5,-56.5"/>
<text text-anchor="middle" x="377" y="-63.5" font-family="Helvetica,sans-Serif" font-size="10.00">utility</text>
</a>
</g>
</g>
<!-- Node5&#45;&gt;Node18 -->
<g id="edge18" class="edge">
<title>Node5&#45;&gt;Node18</title>
<path fill="none" stroke="midnightblue" d="M730.45,-117.66C662.55,-112.18 530.73,-99.67 409.45,-75.79"/>
<polygon fill="midnightblue" stroke="midnightblue" points="410.11,-72.35 399.62,-73.82 408.74,-79.22 410.11,-72.35"/>
</g>
</g>
</svg>
